<svg width="90" height="35" viewBox="0 0 90 35" fill="none" xmlns="http://www.w3.org/2000/svg">
<path fill-rule="evenodd" clip-rule="evenodd" d="M38.0715 12.1133C37.7873 12.1133 37.1892 11.1823 37.2143 10.2106L37.2204 5.2812H38.4075C39.0415 5.2812 39.911 5.19039 40.7027 5.73689C40.7027 5.73689 40.1491 4.00712 38.4075 4.00712H37.2204V2.73195C37.2204 2.73195 37.2204 1.6395 36.9833 1.27462H38.6451C39.9914 1.27462 41.0996 1.27462 42.2866 2.0941C42.2866 2.0941 42.048 0 39.2781 0H33.9758C33.9758 0 34.9252 0.910289 34.8458 2.73141L34.9252 10.2002C34.9252 12.0203 35.5582 12.1111 35.5582 12.1111L38.0715 12.1133ZM55.5531 2.36599L54.005 2.36545C54.005 2.36545 54.6871 2.82549 54.2821 4.78419H54.2841L53.0797 10.539C53.0797 10.539 52.9557 11.3476 52.7284 11.3433C51.932 11.3286 51.571 9.95391 51.4363 9.4868C51.3462 9.17956 50.4623 3.79885 50.426 3.63572C50.1438 2.41004 49.474 2.36708 49.0709 2.36599H47.4916C47.4916 2.36599 47.9105 2.62048 48.1266 3.54763C48.1558 3.66943 49.202 9.50475 49.202 9.50475C49.202 9.50475 49.4181 10.7299 50.0982 11.3389C50.9124 12.0687 51.6238 12.1127 52.1138 12.1127C52.4697 12.1127 52.757 11.8974 52.757 11.8974L52.5619 12.7152C52.2081 14.3281 51.0917 15.1345 51.0917 15.1345C51.0917 15.1345 53.497 15.1361 53.519 15.1345C53.6681 15.1209 54.2769 14.9273 54.7593 12.8147L56.5169 4.83041C56.9537 2.49269 56.0765 2.37143 55.5531 2.36599ZM46.0634 9.68963C46.0634 11.3052 47.0046 12.1127 47.0046 12.1127H44.6095C44.6095 12.1127 43.8398 12.228 43.8398 9.68963V2.42309C43.8398 0.461669 43.0707 0.000543482 43.0707 0.000543482H44.5245C45.0376 0.000543482 46.0634 0.00054395 46.0634 2.6542V9.68963ZM77.7685 34.9004C79.566 34.5894 80.158 33.7818 80.158 33.7818V31.4441C78.7328 34.1951 76.4032 33.2326 75.885 32.9564C74.2007 32.2701 74.0706 29.9324 74.0706 29.9324C75.3667 28.281 76.92 28.6942 78.9924 26.3565C81.5821 23.468 79.6397 20.3059 76.014 20.3059C72.2583 20.3059 70.1858 24.0188 70.1858 28.0058C70.1858 31.5203 72.097 34.2881 75.0339 34.8955C75.7611 35.044 77.0357 35.0238 77.7685 34.9004ZM54.7773 33.2332C53.9999 33.2332 53.3521 32.4077 53.3521 31.4447C53.3521 27.8699 56.2014 27.3206 56.9788 26.3576V32.4083C56.5906 32.8188 56.3305 33.2332 54.7773 33.2332ZM10.6179 32.9569H6.60404C5.30945 32.9569 5.4385 31.8569 5.30945 30.8944V24.7067H7.25133C8.28782 24.7067 9.71249 24.5686 11.0071 25.394C11.0071 25.394 10.1001 22.7822 7.25133 22.7822H5.30945V20.8567C5.30945 20.8567 5.30945 19.2074 4.92077 18.6555H7.64053C9.84153 18.6555 11.6549 18.6555 13.5973 19.8948C13.5973 19.8948 13.2081 16.7316 8.67651 16.7316H0C0 16.7316 1.55422 18.1063 1.42466 20.8567L1.55371 32.1326C1.55371 34.0527 2.05864 34.6997 2.36334 34.914H11.9744C13.3054 34.5573 13.8564 33.3762 13.8564 32.6818V31.5817C13.8564 31.5817 13.2076 32.9569 10.6179 32.9569ZM87.0216 31.0325C87.0216 31.9939 86.1147 33.3702 84.3019 33.3702C82.3595 33.3702 81.7122 31.3076 81.7122 31.3076V33.9194C81.7122 33.9194 82.5582 34.6394 83.9787 34.9145H86.0553C88.0597 34.4877 89.8981 32.7949 90 30.5964V30.2076C90 29.2445 89.7409 28.4191 89.2226 27.5947C88.3162 26.4946 86.762 25.6692 85.5959 24.8448C84.9486 24.4315 84.5615 23.6077 84.5615 23.3315C84.5615 22.7822 84.8196 21.8192 86.6319 21.8192C88.4453 21.8192 89.2226 23.8829 89.2226 23.8829V21.407C89.2226 21.407 87.7985 20.307 85.727 20.307C83.5255 20.307 81.5821 21.8192 81.5821 23.7447C81.7122 25.5321 82.3595 26.6328 83.6546 27.5947C84.1728 28.0069 84.8196 28.4191 85.5959 28.8329C86.6324 29.5191 87.0216 30.207 87.0216 31.0325ZM56.9788 24.9818C56.0719 26.4941 49.5974 26.7693 50.6334 32.2707C50.9365 33.8819 51.7948 34.6541 52.9578 34.914H54.913C56.0222 34.6421 56.6674 33.8933 56.9783 33.2326C57.2374 34.8819 58.0132 34.8819 58.0132 34.8819H61.6399C61.6399 34.8819 60.2158 33.9189 60.2158 31.9934V23.8823C60.2158 21.9557 58.1433 20.3064 56.0708 20.3064C53.9994 20.3064 52.5752 21.4065 52.5752 21.4065V24.0194C52.5752 24.0194 53.3516 21.9557 55.295 21.9557C57.1073 21.9557 57.2374 22.9182 57.2374 23.468C57.2374 23.4685 57.3664 24.0193 56.9788 24.9818ZM38.2011 19.2074C39.1075 19.2074 39.8849 18.3809 39.8849 17.4184C39.8849 16.457 39.1075 15.6315 38.2011 15.6315C37.2947 15.6315 36.5178 16.457 36.5178 17.4184C36.5178 18.3809 37.2952 19.2074 38.2011 19.2074ZM76.7904 25.5321C77.3097 24.295 77.8274 21.2689 75.7554 21.407C73.4249 21.6811 73.813 28.4191 73.813 28.4191C74.5899 27.4577 75.885 27.3206 76.7904 25.5321ZM67.9848 21.9562C69.1509 21.9562 70.0573 22.6447 70.0573 22.6447V20.4451H67.0789V17.0068C67.0789 17.0068 66.3036 18.5185 64.6193 19.8953C63.5833 20.8578 61.3828 21.9568 61.3828 21.9568H63.7124V32.1336C63.7124 34.8835 64.8784 34.8835 64.8784 34.8835H68.5051C68.5051 34.8835 67.0789 33.9205 67.0789 32.1336V21.9568L67.9848 21.9562ZM51.0215 21.5441C51.0215 21.5441 50.7624 20.4451 49.2082 20.4451C46.8776 20.4451 46.3599 23.332 46.3599 23.332C46.2308 20.9943 45.5825 20.3075 44.0293 20.3075H41.8283C41.8283 20.3075 43.1224 20.8578 43.1224 23.332V31.9944C43.1224 34.883 44.1589 34.883 44.1589 34.883H47.784C47.656 34.883 46.3599 33.92 46.3599 31.9944V24.8459C46.49 24.1575 46.8781 23.7458 47.2663 23.3326C48.4313 22.5082 50.1156 22.7833 51.022 23.8839L51.0215 21.5441ZM39.8849 31.9939C39.8849 33.9194 41.3096 34.8825 41.3096 34.8825H37.6834C37.6834 34.8825 36.5178 35.0195 36.5178 31.9939V23.3315C36.5178 20.9938 35.3523 20.4445 35.3523 20.4445H37.5538C38.3312 20.4445 39.8849 20.4445 39.8849 23.6072V31.9939ZM33.539 31.9939V24.1569C33.539 21.1324 31.2089 20.307 29.3956 20.307C27.194 20.307 26.4177 22.3684 26.1586 23.0569C25.6398 21.1324 23.827 20.307 22.4023 20.307C19.554 20.307 18.9067 23.0569 18.9067 23.0569C18.9067 23.0569 18.7772 20.4451 16.5756 20.4451H14.3741C14.3741 20.4451 15.6687 20.9943 15.6687 23.332V31.9944C15.6687 34.0227 16.1793 34.6954 16.484 34.9151H20.2162C19.8669 34.5975 18.9067 33.6535 18.9067 31.9944V24.2956C19.0363 23.8834 19.554 22.7833 21.1082 22.7833C22.0147 22.7833 22.9211 23.7458 22.9211 24.8459V31.9944C22.9211 34.883 23.9571 34.883 23.9571 34.883H27.5827C27.5827 34.883 26.2881 33.92 26.2881 31.9944V24.2956C26.4182 23.8834 26.8064 22.7833 28.2305 22.7833C29.267 22.7833 30.1724 23.7458 30.1724 24.8459V31.9944C30.1724 35.02 31.3385 34.883 31.3385 34.883H34.9641C34.9641 34.883 33.539 33.9194 33.539 31.9939Z" fill="#218C26"/>
</svg>
