<svg width="80" height="36" viewBox="0 0 80 36" fill="none" xmlns="http://www.w3.org/2000/svg">
<g clip-path="url(#clip0_2_596)">
<path d="M42.9483 1.62833C42.6876 1.66212 42.437 2.46865 41.9332 2.8888C41.5647 3.19203 41.1047 3.17306 40.8604 3.54795C40.7677 3.688 40.7977 3.92706 40.6925 4.1566C40.4869 4.61568 39.7626 4.65672 39.7626 5.15692C39.76 5.6971 40.3666 5.80027 40.8917 6.18354C41.3016 6.49206 41.3417 6.70475 41.8379 6.85425C42.2616 6.97541 42.8919 6.57943 43.4597 6.7216C43.9259 6.83853 44.372 6.92273 44.4774 7.32497C44.57 7.69562 44.4711 8.27049 43.9059 8.20421C43.7153 8.18629 42.8894 7.95252 41.8743 8.04307C40.6498 8.15999 39.2524 8.4958 39.1158 9.64259C39.0406 10.2838 39.9843 11.0399 40.8955 10.8861C41.5258 10.7818 41.2276 10.1575 41.571 9.85422C42.0209 9.46573 44.57 11.2105 46.94 11.2105C47.9376 11.2105 48.6795 10.9988 49.4165 10.3502C49.4854 10.3007 49.5694 10.1943 49.6759 10.188C49.7762 10.1943 49.9516 10.2775 50.0093 10.3133C51.918 11.6021 53.3605 14.1872 60.3751 14.2178C61.3614 14.2219 62.4855 14.6179 63.4029 15.3212C64.2214 15.9573 64.7001 16.9459 65.165 17.9494C65.8669 19.4552 67.1252 20.9199 69.0326 22.5499C69.1367 22.6373 70.707 23.6629 70.8323 23.7398C70.8524 23.7503 70.9677 23.9819 70.9277 24.1114C70.8813 25.0886 70.7121 27.9305 73.2336 28.059C73.8503 28.0853 73.6885 27.721 73.6885 27.4704C73.6873 26.9755 73.5795 26.4838 73.8904 25.9773C74.3152 25.2803 72.9893 24.9591 73.0281 23.4523C73.0557 22.3288 71.9327 22.5204 71.3625 21.6643C71.0341 21.1684 70.7421 20.9052 70.7634 20.2986C70.8913 16.8849 69.8986 14.6421 69.4036 14.0914C69.0177 13.6755 68.6981 13.5102 69.0514 13.3174C71.1557 12.1497 71.6332 11.063 71.6332 11.063C72.7523 8.85284 73.7588 6.83422 75.1461 5.94561C75.4256 5.76233 76.1425 5.31277 76.5824 5.13583C77.877 4.62301 78.5588 4.31245 78.9348 4.00491C79.5301 3.51741 80 2.5013 79.4297 1.88531C78.7204 1.12504 77.4935 1.7284 76.9521 1.99793C73.0833 3.92706 72.513 7.33018 71.1732 9.28456C70.1042 10.8461 68.3659 11.9928 66.8119 12.0865C65.6463 12.1591 64.3906 11.9612 63.1398 11.5C60.0981 10.3797 58.4337 8.93288 58.0415 8.67704C57.2243 8.14737 50.8803 2.9151 45.7406 2.70136C45.7406 2.70136 45.1028 1.62841 44.9423 1.6105C44.5662 1.57044 44.1816 2.25173 43.9059 2.33079C43.6464 2.40334 43.2103 1.59251 42.9483 1.62833ZM20.3218 32.8564C19.838 32.8469 19.427 32.5131 19.427 32.1004L19.4282 18.6307H14.1444V33.4787C14.1444 34.2063 14.8462 34.8002 15.7072 34.8002H24.9426C25.8098 34.8002 26.5029 34.2063 26.5029 33.4787V18.6307H21.2242L21.2191 32.1004C21.2191 32.5131 20.808 32.8469 20.3218 32.8564ZM38.0129 18.6307H30.0158C29.0696 18.6307 28.2989 19.2772 28.2989 20.0807V34.8001H33.5875V21.298C33.5913 20.8842 33.9898 20.5567 34.4812 20.5567C34.975 20.5567 35.371 20.8768 35.3822 21.2864V34.8002H40.6497V21.2863C40.656 20.8767 41.052 20.5566 41.5445 20.5566C42.0334 20.5566 42.4369 20.8841 42.4407 21.2979V34.8002H47.7295V20.0807C47.7295 19.2772 46.9574 18.6307 46.0113 18.6307H38.0129ZM7.07344 21.3263C7.07721 20.8767 6.6411 20.5566 6.17862 20.5566H5.28128V28.735H6.17862C6.64487 28.735 7.0773 28.4233 7.07344 27.9759V21.3263ZM10.619 30.7367H5.28128V34.8002H0V18.6307H10.6529C11.6065 18.6307 12.3509 19.2815 12.3509 20.087V29.2805C12.3509 30.0871 11.5777 30.7367 10.619 30.7367ZM65.8531 31.1842C64.7916 31.1842 63.9005 31.955 63.9005 32.889C63.9005 33.8262 64.7916 34.5906 65.887 34.5906C66.9736 34.5906 67.8533 33.8262 67.8533 32.889C67.8533 31.9529 66.9736 31.1842 65.8869 31.1842H65.8531ZM68.2318 32.8838C68.2318 33.982 67.1841 34.8749 65.887 34.8749C64.576 34.8749 63.5233 33.9884 63.5233 32.8838C63.5233 31.8002 64.576 30.8947 65.8481 30.8947C67.1841 30.8947 68.2318 31.7729 68.2318 32.8838Z" fill="#218C26"/>
<path d="M65.6425 32.7574C66.0097 32.7574 66.2028 32.6479 66.2028 32.4289C66.2028 32.2341 66.016 32.1341 65.6588 32.1341H65.5536V32.7574H65.6425ZM66.9949 34.0357H66.3645L65.5536 33.1291V34.0357H65.0385V31.7434H65.5799C66.3156 31.7434 66.7066 31.9772 66.7066 32.4236C66.7066 32.7216 66.476 32.986 66.1539 33.0649L66.1163 33.0765L66.9949 34.0357ZM56.5965 28.7382V21.2927C56.5839 20.8809 56.1892 20.5651 55.6966 20.5651C55.2091 20.5651 54.8055 20.8936 54.8018 21.3043V28.7382H56.5965ZM56.5965 34.8002V30.741H54.8018V34.8002H49.5231V20.0807C49.5231 19.2773 50.2937 18.6307 51.24 18.6307H60.1582C61.107 18.6307 61.8778 19.2773 61.8778 20.0807V34.8001L56.5965 34.8002Z" fill="#218C26"/>
</g>
<defs>
<clipPath id="clip0_2_596">
<rect width="80" height="36" fill="white"/>
</clipPath>
</defs>
</svg>
